<svg version="1" xmlns="http://www.w3.org/2000/svg" width="682.667" height="682.667" viewBox="0 0 512.000000 512.000000"><path d="M426.6 40.9c-1 .4-23.5 22.4-50 48.9L328.4 138 307 116.5c-11.8-11.8-23-22.2-24.8-23.1-8-3.8-16.7-1.6-22.6 5.9l-3.1 3.9v140.5l2.9 4.1c1.6 2.3 4.6 5 7 6.2 4.1 2 5.9 2 71.8 2 56.1 0 68.1-.2 70.9-1.4 3.6-1.5 7.9-5.6 9.9-9.4 1.8-3.6 1.6-11.2-.3-15.2-.9-1.9-11.4-13.2-23.2-25L374 183.6l48.2-48.3c26.6-26.5 48.5-49.3 48.8-50.5.3-1.3.5-2.9.4-3.6-.1-.6-.2-1.7-.3-2.3-.2-1.9-35.7-36.8-38.5-37.9-3.1-1.1-3.4-1.1-6-.1zM104.1 256.7c-3.6.7-12.1 9.7-12.2 13-.4 7-.1 9.1 1.4 12.3.9 1.9 11.4 13.1 23.2 24.9l21.5 21.5-48.1 48.1c-26.5 26.5-48.5 48.9-49 49.7-.4.8-.6 2.3-.4 3.4.2 1 .4 2.5.4 3.2.2 2.2 35.5 37.1 38.7 38.2 1.8.6 4 .7 5.3.2 1.2-.4 23.9-22.5 50.5-49l48.2-48.2 21.4 21.5c12.9 12.9 23.1 22.2 25.4 23.3 7.6 3.6 16 1.3 22-6.1l3.1-3.9.2-69.5c.3-75 .5-71.8-4.9-77.6-5.7-5.9-3.4-5.7-77-5.6-37 .1-68.4.4-69.7.6z"/></svg>